<?xml version="1.0" standalone="no"?>
<!DOCTYPE svg PUBLIC "-//W3C//DTD SVG 20010904//EN"
 "http://www.w3.org/TR/2001/REC-SVG-20010904/DTD/svg10.dtd">
<svg version="1.0" xmlns="http://www.w3.org/2000/svg"
 width="738.000000pt" height="738.000000pt" viewBox="0 0 738.000000 738.000000"
 preserveAspectRatio="xMidYMid meet">
<metadata>
Created by potrace 1.11, written by Peter Selinger 2001-2013
</metadata>
<g transform="translate(0.000000,738.000000) scale(0.100000,-0.100000)"
fill="#000000" stroke="none">
<path d="M3118 7375 c-2 -2 -23 -6 -48 -9 -25 -3 -121 -18 -214 -32 -93 -14
-178 -23 -190 -20 -34 8 -112 -17 -216 -68 -52 -26 -99 -51 -105 -55 -5 -5
-23 -11 -40 -15 -16 -4 -57 -20 -90 -36 -159 -76 -193 -92 -235 -115 -25 -14
-53 -25 -62 -25 -10 0 -18 -4 -18 -8 0 -5 -16 -16 -35 -25 -19 -9 -35 -20 -35
-25 0 -4 -14 -16 -32 -27 -18 -10 -44 -30 -58 -44 -31 -32 -106 -91 -114 -91
-11 0 -350 -342 -387 -390 -34 -44 -73 -91 -95 -114 -7 -7 -21 -31 -33 -54
-12 -23 -26 -42 -31 -42 -5 0 -12 -11 -16 -25 -3 -14 -10 -25 -14 -25 -4 0
-22 -22 -39 -49 -17 -27 -43 -57 -56 -67 -14 -10 -25 -22 -25 -26 0 -4 -13
-21 -29 -39 -17 -18 -36 -46 -42 -63 -7 -17 -16 -33 -19 -36 -10 -9 -40 -77
-40 -93 0 -9 -3 -17 -7 -19 -10 -4 -49 -83 -59 -118 -3 -14 -9 -27 -13 -30 -7
-6 -23 -31 -47 -73 -13 -24 -35 -131 -60 -287 -3 -19 -8 -46 -11 -60 -4 -14
-8 -127 -10 -252 -3 -171 -1 -252 11 -325 8 -54 18 -118 22 -143 10 -69 10
-69 17 -76 4 -4 7 -32 7 -62 0 -30 7 -75 15 -101 8 -25 23 -82 34 -126 19 -81
63 -247 101 -385 12 -41 30 -91 41 -111 10 -20 19 -45 19 -56 0 -10 4 -23 9
-28 6 -6 14 -28 20 -50 11 -46 36 -117 56 -160 11 -25 55 -170 55 -183 0 -2
-33 -1 -72 2 l-73 6 -56 -52 c-54 -52 -56 -55 -74 -141 -23 -114 -17 -310 16
-490 11 -62 24 -84 176 -291 41 -56 92 -127 115 -160 22 -32 82 -102 133 -155
51 -53 106 -110 121 -127 16 -17 87 -72 158 -123 113 -81 137 -94 196 -107 77
-16 100 -23 118 -37 7 -6 68 -12 135 -13 86 -2 124 -7 130 -16 179 -304 305
-509 326 -529 14 -14 82 -83 151 -154 89 -91 176 -166 301 -261 l176 -132 242
-96 c203 -81 270 -103 424 -137 373 -84 343 -80 712 -94 106 -4 160 0 255 20
14 3 50 10 80 16 161 29 301 61 345 77 28 11 153 60 278 111 221 88 234 95
421 220 l194 130 86 125 c58 84 89 140 95 168 30 154 99 430 129 523 20 61 37
112 37 115 1 3 22 69 47 146 47 143 52 165 63 284 4 36 8 76 10 90 21 138 24
288 11 500 -12 191 -13 201 -20 340 -4 69 -9 139 -11 155 -2 17 -7 66 -10 110
-3 44 -8 103 -11 131 l-6 51 95 61 c78 50 105 74 149 134 107 145 136 194 143
239 3 24 8 55 10 69 2 14 7 50 10 80 4 30 13 93 20 140 18 119 20 416 3 434
-7 8 -62 64 -123 125 -101 103 -112 111 -150 113 -22 0 -51 2 -65 3 -14 2 -65
5 -115 9 -49 3 -110 8 -135 11 -25 2 -72 7 -105 10 -33 3 -62 9 -66 13 -3 4
-16 36 -29 71 -12 36 -28 70 -34 76 -6 7 -29 32 -52 56 -23 24 -63 55 -89 69
-45 24 -49 29 -85 120 -164 421 -227 574 -264 639 -24 42 -56 99 -71 126 -16
28 -38 66 -49 86 -20 35 -166 230 -193 257 -7 7 -16 18 -20 25 -5 7 -65 58
-135 114 -115 93 -443 304 -766 493 -134 79 -131 77 -409 241 l-254 150 -187
46 c-166 41 -254 57 -264 48z"/>
</g>
</svg>
